<svg xmlns="http://www.w3.org/2000/svg" width="11.83" height="25.465" viewBox="0 0 11.83 25.465">
  <g id="Group_2613" data-name="Group 2613" transform="translate(-15.304 -8.509)">
    <g id="Group_2595" data-name="Group 2595" transform="translate(15.304 8.509)">
      <path id="Path_17585" data-name="Path 17585" d="M383.421,338.184V350.5a.321.321,0,0,0,.321.321h4.572a.321.321,0,0,0,.321-.321V337.984h3.314a.321.321,0,0,0,.319-.294l.319-3.77a.321.321,0,0,0-.319-.348h-3.633V330.9a1.135,1.135,0,0,1,1.135-1.135h2.555a.321.321,0,0,0,.32-.321v-3.77a.321.321,0,0,0-.32-.321h-4.316a4.587,4.587,0,0,0-4.587,4.587v3.634h-2.286a.321.321,0,0,0-.321.321v3.77a.321.321,0,0,0,.321.321h2.286Z" transform="translate(-380.814 -325.351)" fill="#fc287e" fill-rule="evenodd"/>
    </g>
  </g>
</svg>
