<svg xmlns="http://www.w3.org/2000/svg" width="25.581" height="25.58" viewBox="0 0 25.581 25.58">
  <g id="Group_2616" data-name="Group 2616" transform="translate(-980.179 -277.321)">
    <circle id="Ellipse_292" data-name="Ellipse 292" cx="1.504" cy="1.504" r="1.504" transform="translate(998.195 282.031)" fill="#fc287e"/>
    <path id="Path_17597" data-name="Path 17597" d="M1007.845,311.7a6.317,6.317,0,1,0-6.317-6.317A6.325,6.325,0,0,0,1007.845,311.7Zm0-10.364a4.047,4.047,0,1,1-4.047,4.047A4.051,4.051,0,0,1,1007.845,301.34Z" transform="translate(-14.833 -15.11)" fill="#fc287e"/>
    <path id="Path_17598" data-name="Path 17598" d="M980.179,295.2a7.705,7.705,0,0,0,7.706,7.705h10.17a7.705,7.705,0,0,0,7.705-7.705V285.026a7.705,7.705,0,0,0-7.705-7.7h-10.17a7.705,7.705,0,0,0-7.706,7.7Zm2.413-10.171a5.292,5.292,0,0,1,5.292-5.292h10.17a5.292,5.292,0,0,1,5.292,5.292V295.2a5.292,5.292,0,0,1-5.292,5.292h-10.17a5.292,5.292,0,0,1-5.292-5.292Z" transform="translate(0 0)" fill="#fc287e"/>
  </g>
</svg>
