<svg xmlns="http://www.w3.org/2000/svg" width="22.401" height="21.395" viewBox="0 0 22.401 21.395">
  <g id="Group_2615" data-name="Group 2615" transform="translate(-10.795 -9.698)">
    <g id="Group_2609" data-name="Group 2609" transform="translate(0 0)">
      <g id="Group_2608" data-name="Group 2608" transform="translate(11.108 16.329)">
        <g id="Group_2607" data-name="Group 2607">
          <path id="Path_17594" data-name="Path 17594" d="M389.774,516.493v7.918a.354.354,0,0,1-.354.354h-4.088a.354.354,0,0,1-.354-.354v-7.364c0-1.938-.693-3.261-2.429-3.261a2.623,2.623,0,0,0-2.46,1.754,3.286,3.286,0,0,0-.159,1.169v7.7a.354.354,0,0,1-.354.354H375.49a.353.353,0,0,1-.354-.354c.009-1.961.05-11.476.008-13.712a.353.353,0,0,1,.354-.358h4.078a.354.354,0,0,1,.354.354v1.69c-.009.016-.023.032-.032.047h.032v-.047A4.763,4.763,0,0,1,384.253,510c3.155,0,5.521,2.062,5.521,6.492Zm-21.733,8.272h4.086a.354.354,0,0,0,.354-.354V510.694a.354.354,0,0,0-.354-.354h-4.086a.354.354,0,0,0-.354.354v13.717A.354.354,0,0,0,368.041,524.765Z" transform="translate(-367.687 -510.001)" fill="#fc287e"/>
        </g>
      </g>
    </g>
    <g id="Group_2610" data-name="Group 2610" transform="translate(10.795 9.698)">
      <circle id="Ellipse_291" data-name="Ellipse 291" cx="2.567" cy="2.567" r="2.567" fill="#fc287e"/>
    </g>
  </g>
</svg>
