<svg id="outline-place-24px" xmlns="http://www.w3.org/2000/svg" width="34.998" height="34.998" viewBox="0 0 34.998 34.998">
  <g id="Bounding_Boxes">
    <path id="Path_3314" data-name="Path 3314" d="M0,0H35V35H0Z" fill="none"/>
  </g>
  <g id="Outline" transform="translate(7.291 2.916)">
    <g id="Group_333" data-name="Group 333">
      <path id="Path_3315" data-name="Path 3315" d="M15.208,2A10.2,10.2,0,0,0,5,12.208c0,7.656,10.208,18.957,10.208,18.957s10.208-11.3,10.208-18.957A10.2,10.2,0,0,0,15.208,2ZM7.916,12.208a7.291,7.291,0,0,1,14.582,0c0,4.2-4.2,10.485-7.291,14.407C12.175,22.721,7.916,16.364,7.916,12.208Z" transform="translate(-5 -2)" fill="#fc287e"/>
      <circle id="Ellipse_127" data-name="Ellipse 127" cx="3.646" cy="3.646" r="3.646" transform="translate(6.562 6.562)" fill="#fc287e"/>
    </g>
  </g>
</svg>
