<svg xmlns="http://www.w3.org/2000/svg" width="26.868" height="19.275" viewBox="0 0 26.868 19.275">
  <path id="Path_17596" data-name="Path 17596" d="M108.077,392.309l-.014-.039c-.006-.017-.011-.034-.018-.05s-.012-.033-.018-.048l-.019-.05-.021-.047-.021-.049-.023-.046c-.008-.016-.015-.032-.023-.048l-.023-.044-.025-.047c-.008-.014-.017-.029-.026-.043l-.027-.045-.027-.043-.028-.044-.028-.041-.03-.043-.03-.039-.032-.042c-.01-.013-.021-.025-.031-.038l-.033-.041-.033-.037-.035-.039-.033-.034-.037-.038-.034-.033-.039-.037-.035-.032-.04-.035c-.012-.011-.025-.021-.037-.031l-.042-.033-.038-.028-.043-.033-.039-.028-.044-.03-.041-.026-.044-.028-.042-.025-.045-.027-.043-.023-.047-.025-.044-.021-.047-.023-.045-.02-.049-.021-.046-.018-.049-.018c-.016-.007-.032-.012-.048-.017l-.049-.018-.049-.015-.049-.015-.05-.013-.049-.013-.052-.012-.049-.011-.055-.01-.047-.008-.059-.008-.045-.006-.063-.007-.042,0-.069,0-.037,0-.106,0H83.979l-.107,0-.036,0-.069,0-.043,0-.062.007-.046.006-.058.008-.048.008-.055.01-.049.011-.051.012-.05.013-.05.013-.049.015-.049.015-.049.018c-.016.005-.033.01-.049.017l-.048.018-.047.018-.049.021-.044.02-.048.023-.044.022-.046.025-.043.023-.046.027-.042.025-.044.028-.041.026-.043.03-.039.028-.043.032-.038.029-.041.033c-.013.01-.025.02-.037.031l-.04.035c-.013.01-.024.021-.036.032s-.026.024-.038.037-.023.022-.034.033l-.038.038-.033.035-.035.039-.032.037-.034.041-.031.037-.032.043-.03.039-.03.043c-.009.013-.019.027-.028.04l-.029.044-.027.043-.027.045-.026.043-.025.047-.023.044-.023.048-.022.046c-.008.017-.015.033-.022.049l-.02.047-.02.05-.018.048-.018.05-.014.039a2.412,2.412,0,0,0-.141.831v14.017a2.632,2.632,0,0,0,2.53,2.626h.045l.054,0H105.6a2.6,2.6,0,0,0,2.494-1.821.835.835,0,0,0,.029-.126,2.618,2.618,0,0,0,.09-.682V393.14a2.412,2.412,0,0,0-.141-.831Zm-24.633.141.033-.026.025-.016.035-.023.027-.015.036-.018.028-.013a.374.374,0,0,1,.038-.016l.029-.011.039-.013.029-.008.043-.01.028-.006.049-.006.023,0a.7.7,0,0,1,.074,0H105.59a.7.7,0,0,1,.073,0l.024,0,.048.006.028.006.043.01.028.008.04.013.028.011.038.016.028.013.036.018.027.015.034.023.025.016.033.026.018.014L95.4,403.2a.874.874,0,0,1-1.238,0L83.426,392.463l.018-.013Zm-.341,2.168,5.538,5.538L83.1,405.693Zm22.488,13.416h-21.6a.875.875,0,0,1-.553-.2l6.439-6.439,3.047,3.047a2.629,2.629,0,0,0,3.715,0L99.7,401.38l6.448,6.449a.876.876,0,0,1-.562.2Zm.876-2.369-5.523-5.524,5.523-5.523Zm0,0" transform="translate(-81.35 -390.511)" fill="#fc287e"/>
</svg>
