<svg xmlns="http://www.w3.org/2000/svg" xmlns:xlink="http://www.w3.org/1999/xlink" width="27.14" height="27.137" viewBox="0 0 27.14 27.137">
  <defs>
    <clipPath id="clip-path">
      <rect id="Rectangle_688" data-name="Rectangle 688" width="27.14" height="27.137" fill="#fc287e"/>
    </clipPath>
  </defs>
  <g id="Group_2612" data-name="Group 2612" clip-path="url(#clip-path)">
    <path id="Path_17595" data-name="Path 17595" d="M83.418,147.96a3.182,3.182,0,0,1,3.179-3.189h4.27a3.171,3.171,0,0,1,3.159,2.813,15.478,15.478,0,0,0,.578,2.785,3.178,3.178,0,0,1-.785,3.184l-1.73,1.73a19.953,19.953,0,0,0,7.888,7.888l1.729-1.73a3.177,3.177,0,0,1,3.184-.785,15.505,15.505,0,0,0,2.786.578,3.171,3.171,0,0,1,2.812,3.159v4.269a3.182,3.182,0,0,1-3.48,3.167,26.095,26.095,0,0,1-23.578-23.577c-.009-.1-.013-.195-.013-.292Zm9.211,3.351a1.089,1.089,0,0,0-.048-.322,17.546,17.546,0,0,1-.656-3.168,1.059,1.059,0,0,0-1.058-.934H86.6a1.048,1.048,0,0,0-.784.346,1.061,1.061,0,0,0-.276.825A23.966,23.966,0,0,0,107.2,169.723a1.066,1.066,0,0,0,.826-.276,1.05,1.05,0,0,0,.346-.785v-4.269a1.058,1.058,0,0,0-.935-1.058,17.64,17.64,0,0,1-3.168-.656,1.067,1.067,0,0,0-1.07.257l-2.816,2.817-.681-.339a22.053,22.053,0,0,1-9.859-9.86l-.339-.681,2.817-2.816a1.053,1.053,0,0,0,.306-.747Zm0,0" transform="translate(-83.39 -144.744)" fill="#fc287e"/>
  </g>
</svg>
