<svg id="star_1_" data-name="star (1)" xmlns="http://www.w3.org/2000/svg" width="19.955" height="19.036" viewBox="0 0 19.955 19.036">
  <g id="Group_32" data-name="Group 32" transform="translate(0 0)">
    <path id="Path_29" data-name="Path 29" d="M19.926,19.024a.584.584,0,0,0-.472-.4l-6.186-.9L10.5,12.122a.585.585,0,0,0-1.048,0L6.687,17.727l-6.186.9a.585.585,0,0,0-.324,1l4.476,4.363L3.6,30.148a.585.585,0,0,0,.848.616l5.533-2.909,5.533,2.909a.585.585,0,0,0,.848-.616L15.3,23.987l4.477-4.363A.584.584,0,0,0,19.926,19.024Z" transform="translate(0 -11.796)" fill="#fc287e"/>
  </g>
</svg>
