<svg xmlns="http://www.w3.org/2000/svg" width="24.759" height="20.394" viewBox="0 0 24.759 20.394">
  <g id="Group_2614" data-name="Group 2614" transform="translate(-8.785 -11.045)">
    <g id="Group_2604" data-name="Group 2604" transform="translate(8.785 11.045)">
      <g id="Group_2599" data-name="Group 2599">
        <path id="Path_17588" data-name="Path 17588" d="M184.683,335.8a10.192,10.192,0,0,1-2.5.714c.4-.068,1-.8,1.235-1.092a4.6,4.6,0,0,0,.833-1.517c.022-.043.038-.1-.005-.13a.142.142,0,0,0-.132.011,12.787,12.787,0,0,1-2.97,1.137.2.2,0,0,1-.205-.054,2.429,2.429,0,0,0-.26-.266,5.253,5.253,0,0,0-1.439-.882,5.01,5.01,0,0,0-2.207-.356,5.279,5.279,0,0,0-2.094.592,5.4,5.4,0,0,0-1.689,1.38,5.191,5.191,0,0,0-1.009,2.021,5.475,5.475,0,0,0-.053,2.133c.016.119.005.135-.1.119a15.868,15.868,0,0,1-10.209-5.2c-.119-.136-.184-.136-.281.01a5.176,5.176,0,0,0,.882,6.116c.2.19.406.379.627.552a5.206,5.206,0,0,1-1.97-.552c-.119-.075-.179-.032-.19.1a3.115,3.115,0,0,0,.032.584A5.235,5.235,0,0,0,164.2,345.4a3.07,3.07,0,0,0,.655.2,5.836,5.836,0,0,1-1.932.06c-.141-.027-.195.043-.141.178a5.434,5.434,0,0,0,4.059,3.4c.184.032.368.032.552.075-.011.016-.022.016-.033.033-.456.7-2.036,1.212-2.772,1.469a9.927,9.927,0,0,1-4.21.539c-.226-.033-.274-.031-.335,0s-.008.092.065.151c.287.19.579.358.877.52a13.87,13.87,0,0,0,2.814,1.126,14.99,14.99,0,0,0,14.553-3.4c2.982-2.963,4.027-7.05,4.027-11.141,0-.16.189-.248.3-.333a9.788,9.788,0,0,0,1.971-2.06.6.6,0,0,0,.122-.394V335.8C184.776,335.731,184.784,335.751,184.683,335.8Z" transform="translate(-160.017 -333.352)" fill="#fc287e"/>
      </g>
      <g id="Group_2600" data-name="Group 2600" transform="translate(7.353 20.306)">
        <path id="Path_17589" data-name="Path 17589" d="M183.215,397.419Z" transform="translate(-183.215 -397.419)" fill="#fc287e" fill-rule="evenodd"/>
      </g>
      <g id="Group_2601" data-name="Group 2601" transform="translate(7.164 20.306)">
        <path id="Path_17590" data-name="Path 17590" d="M182.809,397.419c-.032,0-.409,0,0,0Z" transform="translate(-182.62 -397.419)" fill="#fc287e" fill-rule="evenodd"/>
      </g>
      <g id="Group_2602" data-name="Group 2602" transform="translate(8.186 20.309)">
        <path id="Path_17591" data-name="Path 17591" d="M185.846,397.448c0-.042.439,0,0,0C185.846,397.426,185.9,397.448,185.846,397.448Z" transform="translate(-185.846 -397.429)" fill="#fc287e" fill-rule="evenodd"/>
      </g>
      <g id="Group_2603" data-name="Group 2603" transform="translate(16.841 0.03)">
        <path id="Path_17592" data-name="Path 17592" d="M213.255,333.447a.089.089,0,0,1-.1,0Z" transform="translate(-213.153 -333.447)" fill="#fc287e" fill-rule="evenodd"/>
      </g>
    </g>
  </g>
</svg>
